<svg id="svg" version="1.1" xmlns="http://www.w3.org/2000/svg" xmlns:xlink="http://www.w3.org/1999/xlink" width="400" height="295" viewBox="0, 0, 400,295"><g id="svgg"><path id="path0" d="M215.793 2.679 C 215.387 2.807,213.328 3.062,211.218 3.246 C 207.007 3.612,200.930 4.563,200.000 5.000 C 199.675 5.153,198.413 5.492,197.196 5.754 C 194.483 6.336,191.152 7.283,189.963 7.810 C 189.476 8.026,187.882 8.561,186.421 8.999 C 184.959 9.437,183.365 9.974,182.878 10.193 C 182.391 10.412,180.683 10.993,179.082 11.485 C 177.481 11.977,176.020 12.499,175.835 12.645 C 175.650 12.791,174.638 13.204,173.587 13.563 C 172.535 13.922,170.476 14.783,169.011 15.477 C 167.546 16.171,165.815 16.978,165.166 17.269 C 164.517 17.561,163.919 17.879,163.838 17.977 C 163.756 18.075,162.827 18.592,161.771 19.127 C 156.336 21.881,148.252 27.289,144.649 30.580 C 144.244 30.951,143.181 31.876,142.288 32.636 C 139.892 34.674,136.134 38.342,134.570 40.169 C 133.816 41.050,132.656 42.407,131.993 43.185 C 131.330 43.962,130.439 45.191,130.015 45.915 C 129.590 46.640,129.151 47.232,129.039 47.232 C 128.927 47.232,128.589 47.664,128.286 48.192 C 127.984 48.720,127.092 50.110,126.304 51.281 C 125.516 52.453,124.871 53.521,124.871 53.654 C 124.871 53.788,124.478 54.357,123.997 54.919 C 123.517 55.481,123.118 56.042,123.112 56.165 C 123.100 56.382,119.599 61.662,118.837 62.613 C 118.628 62.873,118.127 63.572,117.723 64.166 C 116.314 66.239,114.851 67.601,114.033 67.601 C 112.548 67.601,106.190 68.850,104.945 69.387 C 104.620 69.526,102.694 70.068,100.664 70.591 C 98.635 71.113,96.908 71.624,96.827 71.726 C 96.745 71.827,95.118 72.420,93.210 73.042 C 91.303 73.664,89.742 74.262,89.742 74.371 C 89.742 74.480,89.044 74.814,88.192 75.113 C 86.546 75.689,79.364 79.101,79.114 79.425 C 79.033 79.530,78.070 80.130,76.974 80.757 C 75.878 81.384,74.982 82.002,74.982 82.129 C 74.982 82.257,74.862 82.362,74.716 82.362 C 74.394 82.362,71.908 84.036,70.747 85.034 C 67.400 87.913,65.662 89.546,65.125 90.315 L 64.502 91.208 54.170 91.216 C 42.830 91.226,42.100 91.311,39.262 92.968 C 36.671 94.481,33.963 97.967,33.951 99.803 C 33.950 100.060,33.856 100.363,33.743 100.476 C 32.692 101.526,33.450 106.820,35.120 110.092 C 36.426 112.653,43.011 118.151,46.757 119.808 C 48.503 120.580,48.556 120.758,47.970 123.883 C 47.334 127.279,46.642 132.892,46.642 134.658 C 46.642 135.426,46.509 136.136,46.347 136.236 C 45.947 136.483,45.947 149.273,46.347 149.520 C 46.705 149.741,46.746 152.620,46.391 152.620 C 45.941 152.620,40.617 155.939,39.567 156.874 C 35.469 160.526,30.919 165.717,29.194 168.708 C 28.820 169.358,28.423 169.956,28.313 170.037 C 28.062 170.222,26.273 174.155,26.273 174.522 C 26.273 174.671,25.996 175.402,25.657 176.146 C 24.996 177.596,24.458 181.581,23.941 188.859 C 23.736 191.732,23.476 193.419,23.122 194.173 C 22.415 195.677,20.919 198.101,20.322 198.710 C 20.052 198.984,19.614 199.668,19.347 200.229 C 19.081 200.790,18.632 201.499,18.349 201.805 C 17.674 202.536,15.941 205.069,15.941 205.325 C 15.941 205.435,15.679 205.810,15.358 206.158 C 14.205 207.408,12.684 209.783,11.643 211.956 C 9.881 215.634,9.799 215.856,8.861 219.417 C 8.363 221.308,7.765 223.226,7.533 223.679 C 7.300 224.131,6.675 225.498,6.143 226.716 C 5.612 227.934,5.020 229.094,4.828 229.294 C 2.904 231.305,2.462 240.555,3.964 247.379 C 4.410 249.408,4.864 251.135,4.971 251.217 C 5.078 251.298,5.408 252.096,5.703 252.989 C 6.549 255.544,7.469 257.712,7.707 257.712 C 7.827 257.712,8.088 258.210,8.288 258.819 C 8.489 259.428,9.028 260.590,9.487 261.402 C 9.946 262.214,10.726 263.644,11.219 264.580 C 11.712 265.516,12.560 266.977,13.102 267.827 C 13.644 268.677,14.174 269.648,14.280 269.985 C 14.385 270.322,14.712 270.855,15.005 271.170 C 15.299 271.485,16.039 272.604,16.650 273.657 C 17.831 275.694,18.158 276.208,20.590 279.867 C 21.443 281.148,22.140 282.314,22.140 282.458 C 22.140 282.601,22.449 283.051,22.826 283.458 C 23.203 283.865,23.885 284.834,24.340 285.611 C 25.504 287.597,27.916 289.951,29.728 290.868 C 32.753 292.399,39.973 292.088,41.709 290.352 C 41.934 290.128,42.794 289.578,43.622 289.131 C 44.449 288.685,45.488 288.008,45.930 287.628 C 46.372 287.248,46.815 286.937,46.913 286.937 C 47.407 286.937,52.624 281.514,53.611 279.975 C 53.914 279.502,54.334 278.934,54.545 278.715 C 54.755 278.495,55.190 277.799,55.512 277.169 C 55.833 276.539,56.460 275.791,56.904 275.507 C 57.349 275.222,57.845 274.836,58.007 274.649 C 58.170 274.461,58.834 273.978,59.483 273.574 C 60.133 273.171,61.016 272.525,61.445 272.140 C 61.874 271.755,62.976 270.841,63.893 270.111 C 66.397 268.117,68.651 264.971,70.875 260.369 C 73.026 255.919,73.170 255.547,74.008 252.251 C 74.462 250.465,74.928 248.933,75.043 248.846 C 75.402 248.576,75.896 244.662,76.602 236.505 C 76.976 232.176,77.363 228.303,77.462 227.897 C 77.560 227.491,77.715 225.166,77.806 222.731 C 78.007 217.346,78.625 213.927,79.359 214.140 C 79.630 214.219,80.649 214.507,81.624 214.779 C 82.598 215.051,83.727 215.453,84.133 215.672 C 84.539 215.891,85.717 216.415,86.751 216.836 C 87.785 217.257,89.114 217.904,89.703 218.272 C 90.293 218.641,91.771 219.316,92.989 219.772 C 94.207 220.228,95.336 220.697,95.498 220.815 C 96.039 221.206,99.602 222.272,101.993 222.758 C 103.292 223.022,104.489 223.347,104.654 223.480 C 106.891 225.282,139.898 225.282,144.207 223.480 C 144.531 223.344,146.145 223.026,147.793 222.773 C 151.140 222.259,155.936 221.143,156.162 220.825 C 156.244 220.711,157.967 220.121,159.992 219.515 C 162.017 218.909,163.811 218.302,163.977 218.166 C 164.144 218.030,165.410 217.489,166.790 216.964 C 168.170 216.438,169.464 215.879,169.665 215.719 C 169.867 215.560,170.963 214.978,172.101 214.426 C 173.239 213.874,174.170 213.307,174.170 213.166 C 174.170 213.024,174.622 212.694,175.174 212.432 C 176.378 211.861,197.491 211.695,197.491 212.258 C 197.491 212.424,196.959 213.136,196.310 213.840 C 195.661 214.545,195.129 215.200,195.129 215.297 C 195.129 215.393,194.593 216.237,193.938 217.173 C 192.227 219.615,190.250 223.892,189.364 227.070 C 188.943 228.580,188.477 230.081,188.330 230.406 C 187.662 231.874,185.978 244.460,185.978 247.985 C 185.978 248.886,185.831 249.771,185.651 249.951 C 185.182 250.419,185.111 267.392,185.576 267.685 C 185.761 267.801,186.080 268.456,186.284 269.140 C 186.857 271.061,191.864 276.013,193.237 276.018 C 194.361 276.022,200.547 275.057,200.738 274.848 C 200.819 274.759,201.151 274.664,201.476 274.636 C 201.801 274.609,204.989 274.114,208.561 273.536 C 213.857 272.681,215.859 272.485,219.410 272.480 C 222.111 272.475,223.764 272.360,223.764 272.177 C 223.764 272.015,224.347 271.882,225.060 271.882 C 227.416 271.882,233.803 270.398,236.292 269.272 C 236.951 268.974,238.221 268.416,239.114 268.033 C 240.007 267.650,241.004 267.113,241.328 266.841 C 241.653 266.568,242.270 266.163,242.700 265.940 C 244.758 264.874,248.440 261.346,252.982 256.089 C 254.927 253.838,260.489 249.893,264.502 247.919 C 265.882 247.240,267.077 246.594,267.159 246.483 C 267.240 246.372,268.054 245.917,268.969 245.471 C 269.883 245.026,271.145 244.213,271.773 243.665 C 272.401 243.117,273.014 242.666,273.136 242.662 C 273.257 242.659,273.855 242.225,274.464 241.697 C 275.073 241.170,276.037 240.412,276.605 240.014 C 277.173 239.616,277.970 238.990,278.376 238.621 C 279.077 237.986,282.753 234.852,284.231 233.632 C 284.741 233.210,290.077 227.295,291.001 226.126 C 291.065 226.046,291.586 226.511,292.159 227.160 C 296.548 232.132,298.867 234.038,301.536 234.867 C 304.986 235.938,309.822 235.648,312.177 234.229 C 312.827 233.837,314.354 232.976,315.572 232.314 C 318.644 230.645,320.090 229.807,322.688 228.185 C 325.213 226.608,325.652 226.435,327.958 226.114 C 331.264 225.653,335.671 224.236,336.236 223.452 C 336.317 223.340,336.843 222.970,337.403 222.631 C 340.385 220.828,366.394 195.203,374.465 186.117 C 375.277 185.203,376.406 183.949,376.974 183.331 C 377.542 182.712,378.429 181.693,378.943 181.066 C 379.458 180.439,380.763 178.863,381.844 177.565 C 382.924 176.266,383.928 174.904,384.074 174.539 C 384.220 174.173,384.449 173.875,384.583 173.875 C 384.717 173.875,385.219 173.254,385.698 172.495 C 386.176 171.736,386.758 170.924,386.991 170.691 C 387.440 170.240,389.373 167.125,389.373 166.851 C 389.373 166.762,389.558 166.479,389.786 166.223 C 390.785 165.094,393.230 160.186,394.145 157.471 C 394.524 156.345,394.929 155.353,395.046 155.265 C 395.337 155.047,396.343 150.626,396.757 147.749 C 396.944 146.450,397.219 145.122,397.369 144.797 C 398.735 141.831,398.726 120.694,397.358 117.343 C 397.225 117.018,396.957 115.690,396.762 114.391 C 396.380 111.850,395.380 107.806,395.012 107.313 C 394.888 107.147,394.408 105.954,393.946 104.662 C 393.155 102.450,390.105 95.967,389.704 95.646 C 389.603 95.565,389.122 94.701,388.635 93.727 C 388.148 92.753,387.453 91.584,387.092 91.130 C 386.731 90.675,386.226 89.863,385.970 89.325 C 385.715 88.786,385.278 88.095,384.999 87.789 C 384.720 87.483,384.035 86.502,383.477 85.609 C 382.918 84.716,382.090 83.595,381.636 83.117 C 381.183 82.640,380.812 82.103,380.812 81.924 C 380.812 81.744,380.314 81.044,379.705 80.367 C 379.096 79.691,377.677 78.036,376.551 76.690 C 375.425 75.345,373.939 73.779,373.249 73.210 C 372.559 72.642,371.426 71.679,370.732 71.070 C 370.039 70.462,369.233 69.888,368.942 69.796 C 368.651 69.704,368.413 69.518,368.413 69.384 C 368.413 69.249,367.737 68.705,366.910 68.175 C 366.084 67.644,365.253 67.057,365.065 66.870 C 364.877 66.683,363.793 66.013,362.657 65.381 C 361.520 64.749,360.447 64.093,360.271 63.924 C 360.095 63.755,359.099 63.218,358.057 62.731 C 357.015 62.244,356.005 61.698,355.814 61.517 C 355.622 61.337,354.360 60.746,353.009 60.204 C 351.659 59.662,350.155 58.994,349.668 58.720 C 349.181 58.446,347.852 57.924,346.716 57.560 C 345.579 57.196,344.085 56.646,343.395 56.338 C 342.705 56.031,340.712 55.436,338.967 55.017 C 337.221 54.599,335.565 54.138,335.285 53.994 C 334.015 53.339,326.489 52.510,317.872 52.074 L 314.416 51.899 313.487 50.451 C 312.976 49.655,312.473 49.004,312.368 49.003 C 312.263 49.003,311.788 48.306,311.312 47.454 C 309.121 43.531,305.077 38.322,301.082 34.276 C 298.943 32.111,294.202 27.836,292.694 26.713 C 292.044 26.229,291.414 25.680,291.294 25.493 C 291.173 25.306,290.343 24.667,289.449 24.073 C 288.555 23.480,287.823 22.893,287.823 22.769 C 287.823 22.645,287.325 22.263,286.716 21.920 C 286.107 21.576,285.299 21.004,284.919 20.649 C 284.283 20.054,280.531 17.522,277.380 15.564 C 276.655 15.113,275.154 14.334,274.045 13.832 C 272.937 13.331,271.963 12.823,271.882 12.704 C 271.801 12.585,270.672 12.077,269.373 11.575 C 268.074 11.072,266.480 10.405,265.830 10.091 C 265.181 9.777,263.396 9.154,261.864 8.707 C 260.332 8.260,258.648 7.715,258.123 7.495 C 257.053 7.048,249.471 5.314,248.588 5.314 C 248.275 5.314,247.975 5.195,247.921 5.049 C 247.796 4.712,240.666 3.643,235.867 3.242 C 233.838 3.072,231.627 2.809,230.955 2.658 C 229.495 2.327,216.848 2.345,215.793 2.679 M231.618 13.582 C 237.538 14.045,249.134 16.050,252.728 17.233 C 253.440 17.467,255.218 18.017,256.679 18.455 C 259.996 19.450,264.473 21.213,267.749 22.816 C 272.654 25.215,274.980 26.761,284.256 33.788 C 285.784 34.945,292.150 40.736,293.898 42.558 C 296.976 45.766,298.939 48.324,302.827 54.191 C 308.112 62.168,309.168 62.759,318.524 62.981 C 340.138 63.494,361.124 73.564,372.447 88.856 C 383.646 103.981,387.627 115.387,387.641 132.399 C 387.649 141.229,385.313 151.931,382.069 157.934 C 376.592 168.065,363.779 182.744,342.878 202.827 C 330.882 214.354,330.032 214.992,326.255 215.319 C 323.659 215.544,321.404 216.298,318.991 217.749 C 305.842 225.655,305.956 225.615,303.401 223.235 C 300.157 220.214,296.028 214.736,295.058 212.166 C 293.436 207.872,291.150 208.219,287.198 213.360 C 280.670 221.851,277.365 225.399,271.882 229.802 C 265.250 235.128,263.409 236.386,259.438 238.310 C 256.956 239.513,254.460 241.006,252.694 242.343 C 251.151 243.512,249.200 244.988,248.357 245.625 C 247.515 246.261,245.535 248.212,243.957 249.959 C 235.802 258.992,231.147 261.096,218.303 261.552 C 213.835 261.711,211.320 261.943,209.299 262.382 C 206.715 262.943,197.191 264.502,196.346 264.502 C 195.955 264.502,196.028 260.972,196.629 250.923 C 197.947 228.877,202.672 218.018,213.753 211.564 L 215.107 210.775 230.544 210.775 L 245.981 210.775 251.035 205.928 C 253.814 203.263,258.531 198.713,261.515 195.818 L 266.942 190.554 267.354 187.897 C 268.145 182.800,273.645 145.542,276.724 124.428 C 277.458 119.395,278.169 114.745,278.304 114.096 L 278.550 112.915 282.740 112.833 C 286.800 112.754,286.934 112.731,287.070 112.095 C 287.147 111.734,287.483 109.579,287.818 107.306 C 289.473 96.058,290.185 91.118,290.185 90.884 C 290.185 90.741,282.157 90.627,272.067 90.627 L 253.950 90.627 253.484 93.210 C 253.228 94.631,252.741 97.919,252.402 100.517 C 252.063 103.114,251.394 107.697,250.915 110.701 C 250.436 113.705,249.645 118.952,249.158 122.362 C 247.152 136.402,246.749 139.143,245.905 144.502 C 245.419 147.587,244.679 152.635,244.260 155.720 C 243.841 158.804,243.369 161.993,243.212 162.804 C 243.054 163.616,242.475 167.535,241.925 171.513 C 241.375 175.491,240.700 179.974,240.425 181.476 L 239.925 184.207 212.804 184.207 L 185.683 184.207 185.683 183.358 C 185.683 182.331,187.246 171.020,187.942 167.011 L 188.442 164.133 199.775 164.133 L 211.108 164.133 221.938 153.896 C 231.238 145.106,232.797 143.511,232.979 142.605 C 233.341 140.796,234.930 130.299,235.729 124.437 C 236.149 121.357,236.684 117.837,236.918 116.614 C 237.152 115.391,237.343 114.092,237.343 113.727 L 237.343 113.063 223.764 113.063 C 216.295 113.063,210.185 113.114,210.185 113.178 C 210.185 113.241,209.991 114.337,209.753 115.613 C 209.516 116.889,208.849 121.321,208.271 125.461 C 207.693 129.601,207.048 133.985,206.837 135.203 L 206.455 137.417 199.692 137.496 C 191.424 137.594,192.159 137.870,192.662 134.857 C 192.888 133.505,193.595 128.812,194.234 124.428 C 194.872 120.044,195.926 112.804,196.575 108.339 C 197.615 101.197,198.679 94.215,199.108 91.732 L 199.248 90.918 180.891 90.994 L 162.535 91.070 161.747 96.827 C 161.314 99.993,160.686 104.244,160.352 106.273 C 160.019 108.303,159.662 110.594,159.560 111.365 L 159.373 112.768 163.524 112.768 C 166.796 112.768,167.675 112.851,167.675 113.163 C 167.675 113.800,166.292 123.525,165.653 127.380 C 165.329 129.328,164.915 132.118,164.732 133.579 C 164.549 135.041,164.337 136.535,164.261 136.900 L 164.122 137.565 153.472 137.565 L 142.823 137.565 143.027 136.015 C 143.139 135.162,143.484 132.984,143.793 131.173 C 144.103 129.362,144.693 125.377,145.105 122.317 C 145.517 119.257,146.171 114.827,146.559 112.472 C 146.946 110.118,147.478 106.531,147.740 104.502 C 148.002 102.472,148.608 98.354,149.086 95.351 C 149.874 90.405,150.453 86.486,152.426 72.768 L 153.063 68.339 184.871 68.264 L 216.679 68.189 216.679 69.026 C 216.679 70.091,215.347 79.728,214.612 83.985 C 214.304 85.771,213.963 87.998,213.855 88.933 L 213.658 90.633 227.185 90.557 L 240.712 90.480 241.388 86.052 C 241.759 83.616,242.333 79.764,242.662 77.491 C 242.991 75.218,243.603 71.066,244.023 68.265 L 244.785 63.172 243.395 61.180 C 242.630 60.085,241.417 58.391,240.700 57.417 C 239.322 55.546,237.763 53.388,235.572 50.319 C 234.841 49.295,233.181 46.990,231.882 45.196 L 229.520 41.934 189.151 41.927 C 166.369 41.922,148.782 41.807,148.782 41.661 C 148.782 41.068,154.228 36.651,158.578 33.716 C 167.519 27.684,174.965 24.257,190.111 19.206 C 205.607 14.038,217.261 12.459,231.618 13.582 M123.683 75.351 C 123.679 75.554,123.278 78.376,122.793 81.624 C 122.308 84.871,121.512 90.317,121.025 93.727 C 120.539 97.137,119.809 101.985,119.405 104.502 C 119.001 107.018,118.337 111.535,117.931 114.539 C 117.525 117.542,117.000 121.063,116.763 122.362 C 116.527 123.661,115.929 127.712,115.434 131.365 C 114.939 135.018,114.323 139.161,114.066 140.572 L 113.599 143.137 115.239 145.148 C 117.236 147.595,117.618 148.057,123.482 155.121 C 126.047 158.210,128.770 161.494,129.534 162.419 L 130.923 164.100 145.461 164.116 L 160.000 164.133 159.995 164.945 C 159.992 165.391,159.529 168.878,158.968 172.694 C 158.406 176.509,157.597 182.036,157.170 184.975 L 156.394 190.319 158.418 192.964 C 159.532 194.419,160.841 196.132,161.328 196.771 C 161.815 197.410,163.310 199.353,164.649 201.088 C 165.989 202.823,167.085 204.371,167.085 204.527 C 167.085 205.001,156.722 209.594,155.650 209.594 C 155.523 209.594,153.960 210.063,152.175 210.636 C 134.488 216.318,106.954 215.267,94.317 208.428 C 86.613 204.258,77.870 201.882,75.177 203.226 C 69.504 206.056,67.511 210.268,66.997 220.517 C 65.523 249.860,63.112 257.286,52.503 265.165 C 48.961 267.795,48.284 268.440,46.894 270.508 C 43.520 275.528,41.802 277.320,37.970 279.815 C 34.672 281.961,35.036 282.141,31.447 276.605 C 30.026 274.413,28.636 272.288,28.358 271.882 C 16.578 254.699,11.019 239.139,14.753 233.801 C 15.657 232.509,18.183 226.364,18.879 223.766 C 20.297 218.474,21.059 216.924,25.169 210.980 C 34.176 197.952,34.144 198.028,34.821 187.561 C 35.363 179.187,36.503 176.305,41.745 170.067 C 45.496 165.602,49.329 162.977,56.173 160.182 C 58.109 159.392,58.574 157.307,57.695 153.358 C 55.862 145.127,57.331 127.725,60.539 119.647 C 62.104 115.708,61.777 114.976,57.667 113.218 C 50.222 110.032,44.089 105.517,44.335 103.402 C 44.514 101.855,44.905 101.809,56.827 101.905 C 69.832 102.009,69.173 102.139,71.840 98.947 C 79.320 89.992,95.187 81.788,114.491 76.894 C 121.580 75.096,123.695 74.741,123.683 75.351 M340.795 107.855 C 322.289 117.792,311.773 130.324,311.653 142.583 C 311.548 153.307,324.339 156.017,328.914 146.241 C 329.397 145.210,330.193 142.669,330.683 140.596 C 333.401 129.096,335.418 123.821,341.450 112.436 C 345.026 105.688,345.012 105.591,340.795 107.855 " stroke="none" fill="#d4bd7e" fill-rule="evenodd"></path><path id="path1" d="M217.269 13.751 C 216.701 13.816,214.775 14.014,212.989 14.192 C 199.924 15.494,177.742 22.754,165.489 29.739 C 160.536 32.562,153.689 37.365,150.258 40.422 L 148.930 41.606 189.274 41.615 L 229.618 41.624 230.727 43.173 C 231.337 44.026,232.322 45.387,232.917 46.199 C 233.511 47.011,235.237 49.402,236.753 51.513 C 239.752 55.690,240.774 57.094,243.392 60.633 L 245.116 62.964 244.142 69.490 C 243.606 73.078,242.687 79.336,242.100 83.395 L 241.033 90.775 227.232 90.852 C 218.638 90.899,213.432 90.822,213.432 90.647 C 213.432 90.098,215.769 73.904,216.220 71.327 C 216.472 69.885,216.679 68.655,216.679 68.595 C 216.679 68.534,202.435 68.518,185.027 68.560 L 153.374 68.635 153.139 69.963 C 153.010 70.694,152.303 75.410,151.569 80.443 C 149.838 92.311,148.267 102.987,146.552 114.539 C 143.824 132.911,143.273 136.830,143.387 137.048 C 143.451 137.170,148.068 137.269,153.647 137.269 L 163.791 137.269 163.952 136.458 C 164.389 134.261,166.766 118.455,167.303 114.178 L 167.440 113.080 163.351 112.997 L 159.262 112.915 159.291 112.177 C 159.333 111.133,161.410 96.638,161.987 93.358 L 162.469 90.627 180.816 90.627 C 190.907 90.627,199.224 90.687,199.297 90.761 C 199.427 90.891,198.323 98.766,195.569 117.343 C 193.024 134.512,192.776 136.236,192.772 136.753 C 192.768 137.230,193.286 137.269,199.557 137.269 C 204.789 137.269,206.348 137.185,206.352 136.900 C 206.355 136.697,206.826 133.343,207.400 129.446 C 208.352 122.985,209.836 113.021,209.874 112.841 C 209.941 112.523,237.638 112.818,237.633 113.137 C 237.631 113.339,237.159 116.694,236.585 120.590 C 236.011 124.487,235.029 131.248,234.403 135.614 L 233.265 143.553 232.131 144.649 C 231.061 145.682,216.409 159.480,212.789 162.862 L 211.114 164.428 199.880 164.428 L 188.646 164.428 188.497 165.092 C 188.415 165.458,188.074 167.815,187.739 170.332 C 187.404 172.849,186.868 176.502,186.549 178.450 C 186.229 180.399,185.897 182.425,185.811 182.954 L 185.655 183.915 212.754 183.839 L 239.852 183.764 240.774 177.417 C 241.846 170.033,243.872 156.271,245.771 143.469 C 247.380 132.624,249.355 119.248,250.915 108.635 C 251.547 104.332,252.405 98.554,252.821 95.793 C 253.237 93.033,253.578 90.675,253.578 90.554 C 253.579 90.432,261.882 90.332,272.030 90.332 L 290.480 90.332 290.480 91.105 C 290.480 91.529,290.156 93.821,289.760 96.197 C 289.364 98.573,288.682 103.173,288.243 106.421 C 287.262 113.684,287.774 113.063,282.768 113.063 C 280.515 113.063,278.669 113.162,278.666 113.284 C 278.661 113.506,278.076 117.503,275.567 134.465 C 274.823 139.498,273.627 147.601,272.909 152.472 C 272.192 157.343,271.075 164.915,270.427 169.299 C 269.779 173.683,268.808 180.258,268.269 183.911 L 267.288 190.554 261.836 195.880 C 258.837 198.810,254.086 203.426,251.278 206.139 L 246.173 211.070 230.762 211.074 L 215.351 211.078 213.257 212.239 C 202.167 218.390,197.430 231.493,196.417 258.819 L 196.218 264.207 197.076 264.199 C 197.548 264.195,198.527 264.055,199.252 263.888 C 204.236 262.740,213.355 261.502,217.860 261.362 C 231.038 260.952,235.041 259.032,245.177 248.259 C 248.429 244.803,254.599 240.350,259.402 237.992 C 268.908 233.326,278.197 224.829,288.048 211.789 C 291.280 207.511,293.461 207.829,295.745 212.911 C 297.726 217.321,304.035 224.373,306.029 224.407 C 306.943 224.422,314.055 220.566,319.044 217.349 C 320.582 216.357,325.353 214.908,327.079 214.908 C 329.395 214.908,330.560 214.086,337.328 207.679 C 365.181 181.308,378.517 165.870,383.479 154.255 C 388.455 142.606,388.518 120.999,383.611 108.750 C 379.853 99.365,370.942 85.831,365.503 81.245 C 351.560 69.488,334.244 63.191,315.810 63.176 L 312.063 63.173 309.612 61.919 C 306.824 60.492,306.165 59.744,301.227 52.399 C 296.680 45.635,294.749 43.410,288.856 38.142 C 272.270 23.315,258.167 17.007,235.572 14.310 C 231.840 13.864,219.563 13.489,217.269 13.751 M118.854 76.178 C 116.600 76.653,114.342 77.162,113.836 77.308 C 113.329 77.455,111.454 77.995,109.668 78.508 C 92.340 83.491,76.697 92.274,71.314 100.042 C 69.751 102.297,69.824 102.286,56.717 102.304 C 44.466 102.321,44.280 102.341,44.280 103.641 C 44.280 105.358,54.277 111.969,59.374 113.623 C 61.922 114.450,62.251 116.609,60.457 120.738 C 57.587 127.343,56.239 146.372,58.118 153.739 C 59.167 157.851,58.440 159.794,55.449 160.871 C 47.778 163.634,40.954 169.747,37.241 177.183 C 35.833 180.003,35.580 181.343,35.137 188.339 C 34.544 197.688,34.182 198.512,24.450 212.594 C 21.199 217.299,21.009 217.657,20.080 220.859 C 18.619 225.897,17.369 229.192,15.618 232.622 L 14.037 235.720 14.066 238.524 C 14.148 246.443,16.932 252.985,27.380 269.815 C 28.738 272.002,33.360 279.074,34.085 280.074 C 35.635 282.211,41.698 277.729,46.025 271.247 C 47.739 268.678,48.529 267.799,50.333 266.447 C 51.548 265.536,53.547 264.037,54.777 263.115 C 59.111 259.865,61.975 254.744,64.236 246.199 C 64.745 244.272,66.351 227.737,66.701 220.812 C 67.220 210.546,69.361 205.785,74.627 203.195 C 77.883 201.594,84.481 203.264,94.613 208.253 C 105.866 213.794,119.484 215.260,138.745 213.001 C 147.412 211.985,164.537 206.926,166.728 204.735 C 166.881 204.583,165.719 202.951,162.202 198.376 C 160.642 196.347,158.620 193.707,157.710 192.510 L 156.055 190.333 156.403 188.082 C 156.594 186.843,157.281 182.111,157.929 177.565 C 158.577 173.018,159.232 168.635,159.383 167.823 C 159.535 167.011,159.732 165.915,159.822 165.387 L 159.985 164.428 145.505 164.428 L 131.025 164.428 130.236 163.606 C 129.427 162.764,114.368 144.653,113.757 143.787 C 113.403 143.285,113.548 142.156,116.720 120.738 C 119.748 100.290,120.817 93.035,121.921 85.461 C 122.560 81.077,123.170 76.993,123.277 76.384 C 123.384 75.775,123.355 75.285,123.212 75.295 C 123.069 75.305,121.108 75.703,118.854 76.178 M344.502 106.728 C 344.502 106.979,343.655 108.739,342.620 110.640 C 338.852 117.560,336.072 123.463,334.459 127.970 C 333.994 129.269,333.406 130.902,333.151 131.599 C 332.896 132.297,332.305 134.621,331.836 136.766 C 329.701 146.546,328.279 149.344,324.367 151.465 C 317.816 155.017,310.208 149.029,311.395 141.255 C 313.386 128.209,322.425 117.732,340.074 108.015 C 343.243 106.270,344.502 105.904,344.502 106.728 " stroke="none" fill="#040404" fill-rule="evenodd"></path><path id="path2" d="M221.782 13.503 C 222.722 13.561,224.183 13.561,225.029 13.501 C 225.876 13.442,225.107 13.394,223.321 13.395 C 221.535 13.395,220.842 13.444,221.782 13.503 M215.867 13.791 C 216.314 13.858,217.044 13.858,217.491 13.791 C 217.937 13.723,217.572 13.668,216.679 13.668 C 215.786 13.668,215.421 13.723,215.867 13.791 M229.446 13.791 C 229.893 13.858,230.624 13.858,231.070 13.791 C 231.517 13.723,231.151 13.668,230.258 13.668 C 229.365 13.668,229.000 13.723,229.446 13.791 M212.771 14.083 C 213.138 14.154,213.670 14.151,213.952 14.077 C 214.234 14.003,213.934 13.946,213.284 13.949 C 212.635 13.952,212.404 14.013,212.771 14.083 M233.140 14.083 C 233.507 14.154,234.039 14.151,234.321 14.077 C 234.603 14.003,234.303 13.946,233.653 13.949 C 233.004 13.952,232.773 14.013,233.140 14.083 M199.114 16.531 C 198.742 16.691,198.688 16.785,198.967 16.785 C 199.210 16.785,199.675 16.671,200.000 16.531 C 200.372 16.371,200.427 16.278,200.148 16.278 C 199.904 16.278,199.439 16.392,199.114 16.531 M257.122 18.843 C 257.365 18.994,257.897 19.206,258.303 19.314 C 258.815 19.451,258.906 19.428,258.598 19.238 C 258.354 19.088,257.823 18.876,257.417 18.767 C 256.904 18.630,256.814 18.653,257.122 18.843 M183.173 21.708 C 182.435 22.063,182.411 22.104,183.026 21.954 C 183.862 21.750,184.803 21.270,184.354 21.277 C 184.192 21.279,183.661 21.473,183.173 21.708 M289.594 38.819 C 290.145 39.387,290.662 39.852,290.743 39.852 C 290.824 39.852,290.440 39.387,289.889 38.819 C 289.339 38.251,288.821 37.786,288.740 37.786 C 288.659 37.786,289.043 38.251,289.594 38.819 M300.479 51.218 C 300.638 51.542,300.985 52.074,301.249 52.399 L 301.730 52.989 301.440 52.399 C 301.281 52.074,300.934 51.542,300.670 51.218 L 300.189 50.627 300.479 51.218 M315.203 63.092 C 315.731 63.157,316.594 63.157,317.122 63.092 C 317.649 63.026,317.218 62.973,316.162 62.973 C 315.107 62.973,314.675 63.026,315.203 63.092 M321.406 63.382 C 321.773 63.453,322.304 63.450,322.586 63.376 C 322.869 63.302,322.568 63.245,321.919 63.248 C 321.269 63.251,321.038 63.312,321.406 63.382 M348.635 70.554 C 349.203 70.865,349.801 71.119,349.963 71.119 C 350.125 71.119,349.793 70.865,349.225 70.554 C 348.657 70.242,348.059 69.988,347.897 69.988 C 347.734 69.988,348.066 70.242,348.635 70.554 M352.177 72.162 C 352.177 72.243,352.576 72.516,353.063 72.768 C 353.550 73.019,353.948 73.159,353.948 73.078 C 353.948 72.997,353.550 72.724,353.063 72.472 C 352.576 72.220,352.177 72.081,352.177 72.162 M89.963 85.778 C 88.819 86.399,88.948 86.613,90.111 86.022 C 91.223 85.456,91.420 85.309,91.046 85.325 C 90.897 85.332,90.410 85.535,89.963 85.778 M240.909 89.960 L 240.886 90.621 227.085 90.701 L 213.284 90.781 227.094 90.852 C 241.627 90.926,241.587 90.930,241.084 89.678 C 241.001 89.469,240.922 89.596,240.909 89.960 M73.940 96.900 L 71.882 99.041 74.022 96.982 C 76.010 95.070,76.297 94.760,76.081 94.760 C 76.036 94.760,75.073 95.723,73.940 96.900 M46.716 102.357 C 47.487 102.418,48.749 102.418,49.520 102.357 C 50.292 102.296,49.661 102.247,48.118 102.247 C 46.576 102.247,45.945 102.296,46.716 102.357 M60.148 102.360 C 61.487 102.415,63.679 102.415,65.018 102.360 C 66.358 102.305,65.262 102.260,62.583 102.260 C 59.904 102.260,58.808 102.305,60.148 102.360 M44.512 104.354 C 44.684 104.679,45.395 105.476,46.092 106.125 C 47.345 107.292,46.944 106.787,44.334 103.911 C 44.261 103.830,44.341 104.030,44.512 104.354 M54.317 111.436 C 54.317 111.638,56.125 112.534,56.260 112.399 C 56.324 112.335,55.913 112.062,55.347 111.792 C 54.781 111.522,54.317 111.362,54.317 111.436 M159.214 112.177 L 159.262 112.915 163.235 112.998 C 165.960 113.055,167.281 113.194,167.437 113.441 C 167.596 113.690,167.668 113.642,167.671 113.284 C 167.675 112.817,167.284 112.768,163.563 112.768 C 159.537 112.768,159.448 112.754,159.308 112.103 C 159.182 111.518,159.171 111.527,159.214 112.177 M216.753 112.989 C 220.609 113.035,226.919 113.035,230.775 112.989 C 234.631 112.942,231.476 112.904,223.764 112.904 C 216.052 112.904,212.897 112.942,216.753 112.989 M280.664 112.987 C 281.841 113.043,283.768 113.043,284.945 112.987 C 286.122 112.931,285.159 112.885,282.804 112.885 C 280.450 112.885,279.487 112.931,280.664 112.987 M387.417 132.399 C 387.417 134.185,387.466 134.877,387.525 133.938 C 387.584 132.998,387.583 131.537,387.524 130.690 C 387.464 129.844,387.416 130.613,387.417 132.399 M57.639 132.989 C 57.642 133.638,57.703 133.869,57.773 133.502 C 57.844 133.135,57.841 132.604,57.767 132.321 C 57.694 132.039,57.636 132.339,57.639 132.989 M57.338 135.793 C 57.338 136.362,57.399 136.594,57.473 136.310 C 57.547 136.026,57.547 135.561,57.473 135.277 C 57.399 134.993,57.338 135.225,57.338 135.793 M57.091 143.469 C 57.091 145.823,57.137 146.786,57.193 145.609 C 57.249 144.432,57.249 142.506,57.193 141.328 C 57.137 140.151,57.091 141.114,57.091 143.469 M311.508 140.517 C 311.508 141.085,311.568 141.317,311.643 141.033 C 311.717 140.749,311.717 140.284,311.643 140.000 C 311.568 139.716,311.508 139.948,311.508 140.517 M311.218 143.026 C 311.222 143.675,311.282 143.906,311.353 143.539 C 311.423 143.172,311.421 142.640,311.347 142.358 C 311.273 142.076,311.215 142.376,311.218 143.026 M231.734 144.797 C 231.017 145.528,230.497 146.125,230.578 146.125 C 230.659 146.125,231.312 145.528,232.030 144.797 C 232.747 144.066,233.267 143.469,233.186 143.469 C 233.104 143.469,232.451 144.066,231.734 144.797 M226.706 149.594 L 225.092 151.292 226.790 149.678 C 227.723 148.791,228.487 148.027,228.487 147.981 C 228.487 147.761,228.205 148.017,226.706 149.594 M319.926 152.533 C 320.292 152.603,320.889 152.603,321.255 152.533 C 321.620 152.463,321.321 152.405,320.590 152.405 C 319.860 152.405,319.561 152.463,319.926 152.533 M221.244 154.760 L 219.779 156.310 221.328 154.845 C 222.769 153.484,223.014 153.210,222.793 153.210 C 222.747 153.210,222.049 153.908,221.244 154.760 M57.487 159.485 L 56.966 160.443 57.560 159.746 C 58.066 159.153,58.337 158.519,58.081 158.526 C 58.041 158.527,57.773 158.959,57.487 159.485 M215.793 159.852 C 215.076 160.583,214.556 161.181,214.637 161.181 C 214.718 161.181,215.372 160.583,216.089 159.852 C 216.806 159.122,217.326 158.524,217.245 158.524 C 217.164 158.524,216.510 159.122,215.793 159.852 M138.229 164.354 C 142.247 164.400,148.823 164.400,152.841 164.354 C 156.860 164.308,153.572 164.270,145.535 164.270 C 137.498 164.270,134.210 164.308,138.229 164.354 M188.536 164.330 C 188.428 164.438,188.342 164.670,188.344 164.846 C 188.347 165.039,188.441 165.020,188.581 164.801 C 188.757 164.523,191.507 164.416,200.015 164.354 L 211.218 164.273 199.975 164.203 C 193.792 164.164,188.645 164.221,188.536 164.330 M43.690 168.118 C 42.480 169.336,41.557 170.332,41.638 170.332 C 41.720 170.332,42.776 169.336,43.985 168.118 C 45.195 166.900,46.118 165.904,46.037 165.904 C 45.956 165.904,44.900 166.900,43.690 168.118 M365.741 179.114 L 364.723 180.221 365.830 179.204 C 366.861 178.257,367.073 178.007,366.848 178.007 C 366.798 178.007,366.300 178.506,365.741 179.114 M362.509 182.583 C 361.792 183.314,361.272 183.911,361.353 183.911 C 361.434 183.911,362.087 183.314,362.804 182.583 C 363.521 181.852,364.042 181.255,363.961 181.255 C 363.879 181.255,363.226 181.852,362.509 182.583 M35.198 185.092 C 35.198 185.661,35.258 185.893,35.333 185.609 C 35.407 185.325,35.407 184.860,35.333 184.576 C 35.258 184.292,35.198 184.524,35.198 185.092 M356.452 189.004 L 353.506 192.030 356.531 189.083 C 359.342 186.346,359.691 185.978,359.478 185.978 C 359.434 185.978,358.073 187.339,356.452 189.004 M34.918 189.963 C 34.921 190.775,34.978 191.072,35.046 190.623 C 35.114 190.175,35.112 189.510,35.042 189.147 C 34.972 188.784,34.916 189.151,34.918 189.963 M34.607 192.768 C 34.607 193.336,34.668 193.568,34.742 193.284 C 34.816 193.000,34.816 192.535,34.742 192.251 C 34.668 191.967,34.607 192.199,34.607 192.768 M258.888 198.598 L 255.793 201.771 258.967 198.677 C 260.712 196.975,262.140 195.547,262.140 195.503 C 262.140 195.290,261.762 195.650,258.888 198.598 M346.563 198.893 L 343.173 202.362 346.642 198.972 C 348.550 197.107,350.111 195.546,350.111 195.503 C 350.111 195.290,349.712 195.671,346.563 198.893 M339.624 205.535 L 337.269 207.970 339.705 205.616 C 341.967 203.429,342.275 203.100,342.059 203.100 C 342.015 203.100,340.919 204.196,339.624 205.535 M70.833 205.978 L 69.815 207.085 70.923 206.068 C 71.953 205.121,72.165 204.871,71.940 204.871 C 71.890 204.871,71.392 205.369,70.833 205.978 M249.882 207.306 L 247.528 209.742 249.963 207.387 C 252.225 205.200,252.533 204.871,252.318 204.871 C 252.273 204.871,251.177 205.967,249.882 207.306 M162.066 206.790 C 161.661 207.022,161.461 207.212,161.624 207.212 C 161.786 207.212,162.251 207.022,162.657 206.790 C 163.063 206.558,163.262 206.368,163.100 206.368 C 162.937 206.368,162.472 206.558,162.066 206.790 M334.750 210.111 L 333.137 211.808 334.834 210.195 C 336.411 208.696,336.667 208.413,336.447 208.413 C 336.401 208.413,335.638 209.177,334.750 210.111 M115.354 213.936 C 115.721 214.006,116.253 214.004,116.535 213.930 C 116.817 213.856,116.517 213.798,115.867 213.801 C 115.218 213.805,114.987 213.865,115.354 213.936 M126.716 213.938 C 127.162 214.006,127.893 214.006,128.339 213.938 C 128.786 213.871,128.421 213.815,127.528 213.815 C 126.635 213.815,126.269 213.871,126.716 213.938 M207.813 216.310 L 206.199 218.007 207.897 216.394 C 209.474 214.895,209.729 214.613,209.510 214.613 C 209.464 214.613,208.700 215.376,207.813 216.310 M66.796 220.221 C 66.796 220.952,66.854 221.251,66.924 220.886 C 66.995 220.520,66.995 219.923,66.924 219.557 C 66.854 219.192,66.796 219.491,66.796 220.221 M302.288 222.085 C 302.288 222.136,302.720 222.568,303.247 223.044 L 304.207 223.911 303.340 222.952 C 302.531 222.058,302.288 221.857,302.288 222.085 M277.196 224.797 C 276.479 225.528,275.958 226.125,276.039 226.125 C 276.121 226.125,276.774 225.528,277.491 224.797 C 278.208 224.066,278.728 223.469,278.647 223.469 C 278.566 223.469,277.913 224.066,277.196 224.797 M66.210 228.339 C 66.212 229.151,66.269 229.448,66.337 229.000 C 66.405 228.551,66.403 227.887,66.333 227.524 C 66.263 227.161,66.208 227.528,66.210 228.339 M65.905 231.587 C 65.908 232.236,65.968 232.467,66.039 232.100 C 66.110 231.733,66.107 231.201,66.033 230.919 C 65.959 230.637,65.901 230.937,65.905 231.587 M65.610 234.539 C 65.613 235.188,65.673 235.419,65.744 235.052 C 65.814 234.685,65.812 234.153,65.738 233.871 C 65.664 233.589,65.606 233.889,65.610 234.539 M65.308 237.638 C 65.308 238.207,65.369 238.439,65.443 238.155 C 65.518 237.871,65.518 237.406,65.443 237.122 C 65.369 236.838,65.308 237.070,65.308 237.638 M13.949 240.738 C 13.952 241.387,14.013 241.618,14.083 241.251 C 14.154 240.884,14.151 240.353,14.077 240.070 C 14.003 239.788,13.946 240.089,13.949 240.738 M197.270 244.871 C 197.273 245.520,197.334 245.751,197.404 245.384 C 197.475 245.017,197.472 244.485,197.398 244.203 C 197.325 243.921,197.267 244.221,197.270 244.871 M196.985 247.823 C 196.987 248.635,197.044 248.932,197.112 248.483 C 197.180 248.034,197.178 247.370,197.108 247.007 C 197.038 246.644,196.983 247.011,196.985 247.823 M63.342 249.025 C 63.234 249.457,63.202 249.868,63.271 249.938 C 63.341 250.007,63.487 249.710,63.595 249.278 C 63.704 248.845,63.736 248.434,63.666 248.365 C 63.596 248.295,63.451 248.592,63.342 249.025 M196.674 251.218 C 196.674 251.786,196.734 252.018,196.809 251.734 C 196.883 251.450,196.883 250.985,196.809 250.701 C 196.734 250.417,196.674 250.649,196.674 251.218 M240.580 253.210 L 238.967 254.908 240.664 253.294 C 242.241 251.795,242.497 251.513,242.278 251.513 C 242.232 251.513,241.468 252.277,240.580 253.210 M196.384 256.384 C 196.388 257.033,196.448 257.264,196.519 256.897 C 196.589 256.530,196.587 255.998,196.513 255.716 C 196.439 255.434,196.381 255.734,196.384 256.384 M217.048 261.473 C 217.982 261.531,219.509 261.531,220.443 261.473 C 221.376 261.414,220.613 261.366,218.745 261.366 C 216.878 261.366,216.114 261.414,217.048 261.473 M42.048 276.384 L 41.181 277.343 42.140 276.476 C 43.035 275.668,43.235 275.424,43.007 275.424 C 42.956 275.424,42.525 275.856,42.048 276.384 M34.206 280.517 C 34.429 280.801,34.959 281.015,35.387 280.993 L 36.162 280.953 35.424 280.817 C 35.018 280.742,34.487 280.528,34.244 280.341 C 33.858 280.044,33.853 280.067,34.206 280.517 " stroke="none" fill="#5d5234" fill-rule="evenodd"></path><path id="path3" d="M217.934 13.488 C 218.218 13.562,218.683 13.562,218.967 13.488 C 219.251 13.413,219.018 13.353,218.450 13.353 C 217.882 13.353,217.649 13.413,217.934 13.488 M227.826 13.493 C 228.194 13.564,228.725 13.561,229.007 13.487 C 229.289 13.413,228.989 13.355,228.339 13.359 C 227.690 13.362,227.459 13.422,227.826 13.493 M291.058 39.926 C 291.782 40.697,292.413 41.328,292.460 41.328 C 292.682 41.328,292.447 41.063,291.144 39.840 L 289.742 38.524 291.058 39.926 M150.092 40.221 L 149.225 41.181 150.185 40.314 C 151.079 39.506,151.280 39.262,151.052 39.262 C 151.001 39.262,150.569 39.694,150.092 40.221 M294.465 43.395 C 295.099 44.044,295.684 44.576,295.766 44.576 C 295.847 44.576,295.394 44.044,294.760 43.395 C 294.126 42.745,293.541 42.214,293.460 42.214 C 293.378 42.214,293.831 42.745,294.465 43.395 M320.221 63.087 C 320.587 63.157,321.185 63.157,321.550 63.087 C 321.915 63.016,321.616 62.959,320.886 62.959 C 320.155 62.959,319.856 63.016,320.221 63.087 M323.616 63.377 C 323.900 63.451,324.365 63.451,324.649 63.377 C 324.934 63.303,324.701 63.242,324.133 63.242 C 323.565 63.242,323.332 63.303,323.616 63.377 M153.112 68.389 C 153.004 68.497,152.917 68.729,152.920 68.905 C 152.922 69.096,153.018 69.077,153.158 68.857 C 153.341 68.569,160.185 68.473,185.109 68.413 L 216.827 68.337 185.068 68.264 C 167.600 68.224,153.220 68.280,153.112 68.389 M365.166 80.683 C 365.166 80.734,365.598 81.165,366.125 81.642 L 367.085 82.509 366.218 81.550 C 365.410 80.656,365.166 80.455,365.166 80.683 M253.690 90.765 C 253.598 91.003,253.592 91.369,253.676 91.577 C 253.759 91.785,253.838 91.655,253.851 91.287 L 253.875 90.618 272.149 90.697 C 282.200 90.740,290.362 90.675,290.287 90.554 C 289.996 90.084,253.871 90.292,253.690 90.765 M162.555 90.849 C 162.430 91.050,175.551 91.047,192.768 90.842 C 196.421 90.799,191.148 90.733,181.051 90.695 C 170.953 90.658,162.630 90.727,162.555 90.849 M73.639 96.900 L 72.472 98.155 73.727 96.988 C 74.894 95.903,75.117 95.646,74.894 95.646 C 74.846 95.646,74.281 96.210,73.639 96.900 M49.686 102.066 C 51.928 102.116,55.514 102.116,57.656 102.066 C 59.798 102.015,57.963 101.974,53.579 101.974 C 49.196 101.974,47.443 102.016,49.686 102.066 M142.878 136.827 C 142.878 137.232,142.993 137.565,143.132 137.565 C 143.272 137.565,143.323 137.232,143.246 136.827 C 143.168 136.421,143.054 136.089,142.991 136.089 C 142.929 136.089,142.878 136.421,142.878 136.827 M230.554 145.683 C 229.836 146.413,229.316 147.011,229.397 147.011 C 229.479 147.011,230.132 146.413,230.849 145.683 C 231.566 144.952,232.086 144.354,232.005 144.354 C 231.924 144.354,231.271 144.952,230.554 145.683 M225.081 150.923 L 223.616 152.472 225.166 151.007 C 226.606 149.646,226.851 149.373,226.631 149.373 C 226.584 149.373,225.887 150.070,225.081 150.923 M219.768 155.941 L 218.303 157.491 219.852 156.026 C 221.293 154.665,221.538 154.391,221.317 154.391 C 221.271 154.391,220.573 155.089,219.768 155.941 M58.229 156.310 C 58.233 156.959,58.293 157.190,58.364 156.823 C 58.434 156.456,58.432 155.925,58.358 155.642 C 58.284 155.360,58.226 155.661,58.229 156.310 M214.454 160.959 L 212.989 162.509 214.539 161.044 C 215.979 159.683,216.224 159.410,216.004 159.410 C 215.957 159.410,215.260 160.107,214.454 160.959 M43.827 167.749 L 42.362 169.299 43.911 167.834 C 44.764 167.028,45.461 166.331,45.461 166.284 C 45.461 166.064,45.188 166.309,43.827 167.749 M361.624 183.764 C 360.907 184.494,360.386 185.092,360.467 185.092 C 360.549 185.092,361.202 184.494,361.919 183.764 C 362.636 183.033,363.156 182.435,363.075 182.435 C 362.994 182.435,362.341 183.033,361.624 183.764 M34.918 186.125 C 34.921 186.937,34.978 187.234,35.046 186.786 C 35.114 186.337,35.112 185.673,35.042 185.310 C 34.972 184.947,34.916 185.314,34.918 186.125 M34.607 190.701 C 34.607 191.269,34.668 191.502,34.742 191.218 C 34.816 190.934,34.816 190.469,34.742 190.185 C 34.668 189.900,34.607 190.133,34.607 190.701 M265.697 191.719 L 264.384 193.210 265.831 191.818 C 266.627 191.053,267.218 190.382,267.144 190.327 C 267.071 190.272,266.420 190.898,265.697 191.719 M352.030 193.653 C 350.086 195.601,348.563 197.196,348.644 197.196 C 348.725 197.196,350.381 195.601,352.325 193.653 C 354.268 191.705,355.792 190.111,355.710 190.111 C 355.629 190.111,353.973 191.705,352.030 193.653 M256.820 200.369 L 254.317 202.952 256.900 200.449 C 259.299 198.125,259.618 197.786,259.403 197.786 C 259.359 197.786,258.197 198.948,256.820 200.369 M341.388 204.059 L 340.221 205.314 341.476 204.147 C 342.643 203.062,342.866 202.804,342.643 202.804 C 342.595 202.804,342.030 203.369,341.388 204.059 M248.406 208.487 L 246.052 210.923 248.487 208.568 C 250.749 206.381,251.057 206.052,250.842 206.052 C 250.797 206.052,249.701 207.148,248.406 208.487 M335.775 209.373 L 334.908 210.332 335.867 209.465 C 336.761 208.657,336.962 208.413,336.734 208.413 C 336.683 208.413,336.252 208.845,335.775 209.373 M134.391 213.635 C 134.675 213.709,135.140 213.709,135.424 213.635 C 135.708 213.561,135.476 213.500,134.908 213.500 C 134.339 213.500,134.107 213.561,134.391 213.635 M112.841 213.930 C 113.125 214.005,113.590 214.005,113.875 213.930 C 114.159 213.856,113.926 213.795,113.358 213.795 C 112.790 213.795,112.557 213.856,112.841 213.930 M130.554 213.938 C 131.000 214.006,131.731 214.006,132.177 213.938 C 132.624 213.871,132.258 213.815,131.365 213.815 C 130.472 213.815,130.107 213.871,130.554 213.938 M116.388 214.234 C 116.837 214.302,117.501 214.300,117.864 214.230 C 118.227 214.160,117.860 214.104,117.048 214.107 C 116.236 214.109,115.939 214.166,116.388 214.234 M123.626 214.240 C 124.484 214.300,125.812 214.299,126.578 214.239 C 127.344 214.178,126.642 214.129,125.018 214.130 C 123.395 214.131,122.768 214.180,123.626 214.240 M207.512 216.310 L 206.494 217.417 207.601 216.400 C 208.632 215.453,208.844 215.203,208.619 215.203 C 208.569 215.203,208.071 215.701,207.512 216.310 M65.604 237.048 C 65.604 237.616,65.664 237.849,65.739 237.565 C 65.813 237.280,65.813 236.815,65.739 236.531 C 65.664 236.247,65.604 236.480,65.604 237.048 M65.314 239.852 C 65.318 240.502,65.378 240.733,65.449 240.366 C 65.519 239.998,65.517 239.467,65.443 239.185 C 65.369 238.903,65.311 239.203,65.314 239.852 M245.447 248.044 L 244.280 249.299 245.535 248.132 C 246.225 247.490,246.790 246.926,246.790 246.877 C 246.790 246.654,246.533 246.878,245.447 248.044 M196.109 262.731 C 196.109 263.786,196.163 264.218,196.228 263.690 C 196.294 263.162,196.294 262.299,196.228 261.771 C 196.163 261.244,196.109 261.675,196.109 262.731 " stroke="none" fill="#84744c" fill-rule="evenodd"></path><path id="path4" d="M169.101 41.845 C 180.194 41.888,198.261 41.888,209.248 41.845 C 220.235 41.802,211.159 41.767,189.077 41.767 C 166.996 41.767,158.007 41.802,169.101 41.845 M318.303 63.082 C 318.587 63.156,319.052 63.156,319.336 63.082 C 319.620 63.007,319.387 62.947,318.819 62.947 C 318.251 62.947,318.018 63.007,318.303 63.082 M148.394 137.490 C 151.185 137.539,155.834 137.539,158.726 137.490 C 161.619 137.442,159.336 137.402,153.653 137.402 C 147.970 137.402,145.604 137.442,148.394 137.490 M196.089 137.490 C 197.996 137.541,201.118 137.541,203.026 137.490 C 204.934 137.438,203.373 137.396,199.557 137.396 C 195.742 137.396,194.181 137.438,196.089 137.490 M199.211 184.133 C 206.732 184.177,218.953 184.177,226.369 184.133 C 233.785 184.089,227.631 184.053,212.694 184.053 C 197.756 184.053,191.689 184.089,199.211 184.133 M223.120 210.996 C 227.394 211.042,234.301 211.042,238.471 210.996 C 242.640 210.950,239.144 210.912,230.701 210.912 C 222.258 210.912,218.847 210.950,223.120 210.996 M119.182 214.235 C 119.706 214.300,120.636 214.301,121.248 214.238 C 121.861 214.174,121.432 214.120,120.295 214.119 C 119.159 214.118,118.658 214.170,119.182 214.235 M13.648 238.229 C 13.648 238.797,13.709 239.030,13.783 238.745 C 13.857 238.461,13.857 237.996,13.783 237.712 C 13.709 237.428,13.648 237.661,13.648 238.229 " stroke="none" fill="#7c744c" fill-rule="evenodd"></path></g></svg>